<?xml version="1.0" encoding="UTF-8" standalone="no"?>
<!-- Created with Inkscape (http://www.inkscape.org/) -->

<svg
   xmlns:dc="http://purl.org/dc/elements/1.1/"
   xmlns:cc="http://creativecommons.org/ns#"
   xmlns:rdf="http://www.w3.org/1999/02/22-rdf-syntax-ns#"
   xmlns:svg="http://www.w3.org/2000/svg"
   xmlns="http://www.w3.org/2000/svg"
   xmlns:sodipodi="http://sodipodi.sourceforge.net/DTD/sodipodi-0.dtd"
   xmlns:inkscape="http://www.inkscape.org/namespaces/inkscape"
   width="111.33125mm"
   height="117.60918mm"
   viewBox="0 0 394.48079 416.72543"
   id="svg4761"
   version="1.1"
   inkscape:version="0.91 r13725"
   sodipodi:docname="toes.svg">
  <defs
     id="defs4763" />
  <sodipodi:namedview
     id="base"
     pagecolor="#ffffff"
     bordercolor="#666666"
     borderopacity="1.0"
     inkscape:pageopacity="0.0"
     inkscape:pageshadow="2"
     inkscape:zoom="0.7"
     inkscape:cx="138.02442"
     inkscape:cy="345.22248"
     inkscape:document-units="px"
     inkscape:current-layer="layer1"
     showgrid="false"
     showguides="false"
     fit-margin-top="0"
     fit-margin-left="0"
     fit-margin-right="0"
     fit-margin-bottom="0"
     inkscape:window-width="1920"
     inkscape:window-height="1031"
     inkscape:window-x="0"
     inkscape:window-y="0"
     inkscape:window-maximized="1" />
  <metadata
     id="metadata4766">
    <rdf:RDF>
      <cc:Work
         rdf:about="">
        <dc:format>image/svg+xml</dc:format>
        <dc:type
           rdf:resource="http://purl.org/dc/dcmitype/StillImage" />
        <dc:title></dc:title>
      </cc:Work>
    </rdf:RDF>
  </metadata>
  <g
     inkscape:label="Layer 1"
     inkscape:groupmode="layer"
     id="layer1"
     transform="translate(-165.93018,-480.67764)">
    <path
       style="fill:none;fill-rule:evenodd;stroke:#000000;stroke-width:1px;stroke-linecap:butt;stroke-linejoin:miter;stroke-opacity:1"
       d="m 551.36021,897.38535 -2.52538,-71.21576 c 23.59308,-67.73585 2.77217,-112.51943 -1.21937,-116.84594 -10.31136,-11.17667 -26.39982,-2.83167 -34.61567,-1.72443 0.41721,-6.22369 16.55482,-66.67441 -21.59572,-80.42968 -19.46542,-1.6298 -20.62919,-2.45823 -34.61836,7.69267 24.96017,-46.62097 -4.29067,-68.53082 -19.28571,-73.92857 -14.99505,-5.39775 -28.67027,11.46848 -39.64286,20.35714 9.19451,-21.41784 8.41207,-48.17655 -16.07142,-55.35714 -24.4835,-7.1806 -56.19475,-5.48997 -58.21429,45.35713 -2.01954,50.8471 0.26657,104.55252 -9.64286,121.42858 -9.90944,16.87606 -39.90491,-5.65908 -34.64286,-22.14286 5.26205,-16.48379 59.41482,-130.96676 0.89285,-176.07142 -65.20617,-50.25638 -109.81048,54.50182 -109.82142,100.35714 -0.0189,79.1082 5.47619,100.95238 8.21429,151.42857 l -12.14286,151.07143"
       id="path5320"
       inkscape:connector-curvature="0"
       sodipodi:nodetypes="ccsccczczzzzsscc" />
    <path
       style="fill:none;fill-rule:evenodd;stroke:#000000;stroke-width:1px;stroke-linecap:butt;stroke-linejoin:miter;stroke-opacity:1"
       d="m 398.13135,580.24102 c -16.40533,50.39374 -5.2469,73.7993 -12.14286,110 -2.614,13.72233 -10.30629,0.94064 -8.57143,-8.92858 7.02843,-39.98313 3.32352,-63.63511 20.71429,-101.07142 z"
       id="path5324"
       inkscape:connector-curvature="0"
       sodipodi:nodetypes="ccsc" />
    <path
       style="fill:none;fill-rule:evenodd;stroke:#000000;stroke-width:1px;stroke-linecap:butt;stroke-linejoin:miter;stroke-opacity:1"
       d="m 456.92717,634.9365 c -16.40533,50.39374 -13.81833,63.44216 -12.5,98.21429 -2.614,13.72233 -14.84432,-7.29874 -10.71429,-16.42858 15.42129,-34.09027 5.82352,-42.56369 23.21429,-81.78571 z"
       id="path5324-3"
       inkscape:connector-curvature="0"
       sodipodi:nodetypes="ccsc" />
    <path
       style="fill:none;fill-rule:evenodd;stroke:#000000;stroke-width:1px;stroke-linecap:butt;stroke-linejoin:miter;stroke-opacity:1"
       d="m 513.40081,706.21515 c -16.40533,50.39374 -16.09117,48.28987 -14.77284,83.062 -2.614,13.72233 -11.30879,-11.33935 -7.17876,-20.46919 15.42129,-34.09027 4.56083,-23.37079 21.9516,-62.59281 z"
       id="path5324-3-6"
       inkscape:connector-curvature="0"
       sodipodi:nodetypes="ccsc" />
    <path
       style="fill:#ffffff;fill-opacity:1;fill-rule:evenodd;stroke:#000000;stroke-width:1px;stroke-linecap:butt;stroke-linejoin:miter;stroke-opacity:1"
       d="m 208.91849,562.51978 c 18.36413,19.9288 40.61116,15.4508 63.63962,6.06091 7.40823,-18.51931 13.7045,-37.40929 13.13198,-58.58885 -19.67547,-6.95146 -37.77502,-17.31743 -65.15484,-7.57614 -6.78082,18.78816 -9.48609,39.323 -11.61676,60.10408 z"
       id="path5356"
       inkscape:connector-curvature="0"
       sodipodi:nodetypes="ccccc" />
    <path
       style="fill:#ffffff;fill-opacity:1;fill-rule:evenodd;stroke:#000000;stroke-width:0.99999994px;stroke-linecap:butt;stroke-linejoin:miter;stroke-opacity:1"
       d="m 347.29376,554.86642 c 9.6105,8.94485 23.77842,10.21794 35.8299,6.00338 3.87695,-8.31221 4.39406,-17.29588 4.09444,-26.80211 -10.29676,-3.1201 -19.7688,-7.77277 -34.09748,-3.40048 -3.5486,8.43289 -4.71182,14.87183 -5.82686,24.19921 z"
       id="path5356-7"
       inkscape:connector-curvature="0"
       sodipodi:nodetypes="ccccc" />
    <path
       style="fill:#ffffff;fill-opacity:1;fill-rule:evenodd;stroke:#000000;stroke-width:0.99999994px;stroke-linecap:butt;stroke-linejoin:miter;stroke-opacity:1"
       d="m 416.21833,595.34065 c 9.6105,8.94485 23.77842,10.21794 35.8299,6.00338 3.87695,-8.31221 4.39406,-17.29588 4.09444,-26.80211 -10.29676,-3.1201 -19.7688,-7.77277 -34.09748,-3.40048 -3.5486,8.43289 -4.71182,14.87183 -5.82686,24.19921 z"
       id="path5356-7-5"
       inkscape:connector-curvature="0"
       sodipodi:nodetypes="ccccc" />
    <path
       style="fill:#ffffff;fill-opacity:1;fill-rule:evenodd;stroke:#000000;stroke-width:0.99999988px;stroke-linecap:butt;stroke-linejoin:miter;stroke-opacity:1"
       d="m 468.49201,650.10347 c 8.82193,7.62726 21.82733,8.71282 32.88994,5.11907 3.55884,-7.0878 4.03352,-14.74815 3.75848,-22.85409 -9.45188,-2.66051 -18.1467,-6.62783 -31.29967,-2.89959 -3.25743,7.19071 -4.3252,12.68118 -5.34875,20.63461 z"
       id="path5356-7-3"
       inkscape:connector-curvature="0"
       sodipodi:nodetypes="ccccc" />
    <path
       style="fill:#ffffff;fill-opacity:1;fill-rule:evenodd;stroke:#000000;stroke-width:0.99999988px;stroke-linecap:butt;stroke-linejoin:miter;stroke-opacity:1"
       d="m 525.81378,728.2141 c 6.94985,6.45829 17.19542,7.37748 25.91046,4.33451 2.80363,-6.00152 3.17758,-12.48783 2.96091,-19.35145 -7.44612,-2.25275 -14.29584,-5.61204 -24.65766,-2.45519 -2.56618,6.08865 -3.40736,10.73765 -4.21371,17.47213 z"
       id="path5356-7-56"
       inkscape:connector-curvature="0"
       sodipodi:nodetypes="ccccc" />
  </g>
</svg>
